<mxfile host="app.diagrams.net" modified="2021-05-04T22:46:22.595Z" agent="5.0 (Windows NT 10.0; WOW64) AppleWebKit/537.36 (KHTML, like Gecko) Chrome/90.0.4430.93 Safari/537.36" etag="deRsfjoQrG91ixKI4Q6W" version="14.6.10" type="github">
  <diagram id="mmvU4e6FpdxDizaTXteE" name="Page-1">
    <mxGraphModel dx="1422" dy="794" grid="1" gridSize="10" guides="1" tooltips="1" connect="1" arrows="1" fold="1" page="1" pageScale="1" pageWidth="850" pageHeight="1100" math="0" shadow="0">
      <root>
        <mxCell id="0" />
        <mxCell id="1" parent="0" />
        <mxCell id="GxGi4b_EHKD-UxvmvESl-1" value="" style="rounded=0;whiteSpace=wrap;html=1;fillColor=#dae8fc;strokeColor=#6c8ebf;" vertex="1" parent="1">
          <mxGeometry x="100" y="100" width="700" height="460" as="geometry" />
        </mxCell>
        <mxCell id="GxGi4b_EHKD-UxvmvESl-2" value="" style="rounded=0;whiteSpace=wrap;html=1;fillColor=#dae8fc;strokeColor=#6c8ebf;" vertex="1" parent="1">
          <mxGeometry x="100" y="100" width="700" height="30" as="geometry" />
        </mxCell>
        <mxCell id="GxGi4b_EHKD-UxvmvESl-3" value="" style="rounded=0;whiteSpace=wrap;html=1;fillColor=#f8cecc;strokeColor=#b85450;" vertex="1" parent="1">
          <mxGeometry x="740" y="100" width="60" height="30" as="geometry" />
        </mxCell>
        <mxCell id="GxGi4b_EHKD-UxvmvESl-4" value="" style="rounded=0;whiteSpace=wrap;html=1;fillColor=#f5f5f5;strokeColor=#666666;fontColor=#333333;" vertex="1" parent="1">
          <mxGeometry x="710" y="100" width="30" height="30" as="geometry" />
        </mxCell>
        <mxCell id="GxGi4b_EHKD-UxvmvESl-5" value="" style="rounded=0;whiteSpace=wrap;html=1;fillColor=#f5f5f5;strokeColor=#666666;fontColor=#333333;" vertex="1" parent="1">
          <mxGeometry x="680" y="100" width="30" height="30" as="geometry" />
        </mxCell>
        <mxCell id="GxGi4b_EHKD-UxvmvESl-7" value="" style="line;strokeWidth=1;rotatable=0;dashed=0;labelPosition=right;align=left;verticalAlign=middle;spacingTop=0;spacingLeft=6;points=[];portConstraint=eastwest;" vertex="1" parent="1">
          <mxGeometry x="685" y="117" width="20" height="10" as="geometry" />
        </mxCell>
        <mxCell id="GxGi4b_EHKD-UxvmvESl-9" value="" style="rounded=0;whiteSpace=wrap;html=1;fillColor=#f5f5f5;strokeColor=#666666;fontColor=#333333;" vertex="1" parent="1">
          <mxGeometry x="715" y="107.5" width="20" height="15" as="geometry" />
        </mxCell>
        <mxCell id="GxGi4b_EHKD-UxvmvESl-10" value="" style="shape=image;html=1;verticalAlign=top;verticalLabelPosition=bottom;labelBackgroundColor=#ffffff;imageAspect=0;aspect=fixed;image=https://cdn1.iconfinder.com/data/icons/feather-2/24/x-128.png" vertex="1" parent="1">
          <mxGeometry x="755.5" y="100" width="29" height="29" as="geometry" />
        </mxCell>
        <mxCell id="GxGi4b_EHKD-UxvmvESl-11" value="&lt;font style=&quot;font-size: 14px&quot;&gt;NBA 2017-18 Season&lt;/font&gt;" style="text;html=1;strokeColor=none;fillColor=none;align=center;verticalAlign=middle;whiteSpace=wrap;rounded=0;" vertex="1" parent="1">
          <mxGeometry x="120" y="102" width="150" height="28" as="geometry" />
        </mxCell>
        <mxCell id="GxGi4b_EHKD-UxvmvESl-12" value="" style="shape=image;verticalLabelPosition=bottom;labelBackgroundColor=#ffffff;verticalAlign=top;aspect=fixed;imageAspect=0;image=https://pngimg.com/uploads/nba/nba_PNG20.png;" vertex="1" parent="1">
          <mxGeometry x="108.75" y="102" width="11.25" height="25" as="geometry" />
        </mxCell>
        <mxCell id="GxGi4b_EHKD-UxvmvESl-13" value="" style="rounded=0;whiteSpace=wrap;html=1;fillColor=#f5f5f5;strokeColor=#666666;fontColor=#333333;" vertex="1" parent="1">
          <mxGeometry x="100" y="130" width="700" height="20" as="geometry" />
        </mxCell>
        <mxCell id="GxGi4b_EHKD-UxvmvESl-14" value="File" style="text;html=1;strokeColor=none;fillColor=none;align=center;verticalAlign=middle;whiteSpace=wrap;rounded=0;" vertex="1" parent="1">
          <mxGeometry x="100" y="130" width="40" height="20" as="geometry" />
        </mxCell>
        <mxCell id="GxGi4b_EHKD-UxvmvESl-15" value="Help" style="text;html=1;strokeColor=none;fillColor=none;align=center;verticalAlign=middle;whiteSpace=wrap;rounded=0;" vertex="1" parent="1">
          <mxGeometry x="140" y="130" width="40" height="20" as="geometry" />
        </mxCell>
        <mxCell id="GxGi4b_EHKD-UxvmvESl-16" value="" style="shape=image;verticalLabelPosition=bottom;labelBackgroundColor=#ffffff;verticalAlign=top;aspect=fixed;imageAspect=0;image=https://upload.wikimedia.org/wikipedia/commons/6/6c/Houston-Rockets-logo.png;" vertex="1" parent="1">
          <mxGeometry x="150" y="307" width="177.48" height="100" as="geometry" />
        </mxCell>
        <mxCell id="GxGi4b_EHKD-UxvmvESl-21" value="" style="group" vertex="1" connectable="0" parent="1">
          <mxGeometry x="170" y="427" width="130" height="30" as="geometry" />
        </mxCell>
        <mxCell id="GxGi4b_EHKD-UxvmvESl-18" value="" style="rounded=0;whiteSpace=wrap;html=1;" vertex="1" parent="GxGi4b_EHKD-UxvmvESl-21">
          <mxGeometry width="100" height="30" as="geometry" />
        </mxCell>
        <mxCell id="GxGi4b_EHKD-UxvmvESl-19" value="" style="rounded=0;whiteSpace=wrap;html=1;fillColor=#f5f5f5;strokeColor=#666666;fontColor=#333333;" vertex="1" parent="GxGi4b_EHKD-UxvmvESl-21">
          <mxGeometry x="100" width="30" height="30" as="geometry" />
        </mxCell>
        <mxCell id="GxGi4b_EHKD-UxvmvESl-20" value="" style="triangle;whiteSpace=wrap;html=1;rotation=90;fillColor=#000000;" vertex="1" parent="GxGi4b_EHKD-UxvmvESl-21">
          <mxGeometry x="110" y="12" width="10" height="20" as="geometry" />
        </mxCell>
        <mxCell id="GxGi4b_EHKD-UxvmvESl-29" value="&lt;font style=&quot;font-size: 17px&quot;&gt;HOU&lt;/font&gt;" style="text;html=1;strokeColor=none;fillColor=none;align=center;verticalAlign=middle;whiteSpace=wrap;rounded=0;" vertex="1" parent="GxGi4b_EHKD-UxvmvESl-21">
          <mxGeometry x="10" y="5" width="90" height="20" as="geometry" />
        </mxCell>
        <mxCell id="GxGi4b_EHKD-UxvmvESl-22" value="" style="group" vertex="1" connectable="0" parent="1">
          <mxGeometry x="580" y="427" width="130" height="35" as="geometry" />
        </mxCell>
        <mxCell id="GxGi4b_EHKD-UxvmvESl-23" value="" style="rounded=0;whiteSpace=wrap;html=1;" vertex="1" parent="GxGi4b_EHKD-UxvmvESl-22">
          <mxGeometry width="100" height="30" as="geometry" />
        </mxCell>
        <mxCell id="GxGi4b_EHKD-UxvmvESl-24" value="" style="rounded=0;whiteSpace=wrap;html=1;fillColor=#f5f5f5;strokeColor=#666666;fontColor=#333333;" vertex="1" parent="GxGi4b_EHKD-UxvmvESl-22">
          <mxGeometry x="100" width="30" height="30" as="geometry" />
        </mxCell>
        <mxCell id="GxGi4b_EHKD-UxvmvESl-25" value="" style="triangle;whiteSpace=wrap;html=1;rotation=90;fillColor=#000000;" vertex="1" parent="GxGi4b_EHKD-UxvmvESl-22">
          <mxGeometry x="110" y="12" width="10" height="20" as="geometry" />
        </mxCell>
        <mxCell id="GxGi4b_EHKD-UxvmvESl-31" value="&lt;font style=&quot;font-size: 17px&quot;&gt;ATL&lt;/font&gt;" style="text;html=1;strokeColor=none;fillColor=none;align=center;verticalAlign=middle;whiteSpace=wrap;rounded=0;" vertex="1" parent="GxGi4b_EHKD-UxvmvESl-22">
          <mxGeometry y="-5" width="100" height="40" as="geometry" />
        </mxCell>
        <mxCell id="GxGi4b_EHKD-UxvmvESl-26" value="" style="shape=image;verticalLabelPosition=bottom;labelBackgroundColor=#ffffff;verticalAlign=top;aspect=fixed;imageAspect=0;image=https://logos-world.net/wp-content/uploads/2020/05/Atlanta-Hawks-logo.png;" vertex="1" parent="1">
          <mxGeometry x="550" y="307.7" width="175" height="98.6" as="geometry" />
        </mxCell>
        <mxCell id="GxGi4b_EHKD-UxvmvESl-27" value="&lt;font style=&quot;font-size: 20px&quot;&gt;&lt;b&gt;NBA Game Finder&lt;/b&gt;&lt;/font&gt;" style="text;html=1;strokeColor=none;fillColor=none;align=center;verticalAlign=middle;whiteSpace=wrap;rounded=0;" vertex="1" parent="1">
          <mxGeometry x="110" y="150" width="207.48" height="60" as="geometry" />
        </mxCell>
        <mxCell id="GxGi4b_EHKD-UxvmvESl-32" value="&lt;div style=&quot;line-height: 19px&quot;&gt;&lt;font style=&quot;font-size: 16px&quot;&gt;Select two teams and click submit to view the game stats for games between your selected teams during 2017-18 NBA season&lt;/font&gt;&lt;/div&gt;" style="text;html=1;strokeColor=none;fillColor=none;align=center;verticalAlign=middle;whiteSpace=wrap;rounded=0;" vertex="1" parent="1">
          <mxGeometry x="108.75" y="230" width="360" height="20" as="geometry" />
        </mxCell>
        <mxCell id="GxGi4b_EHKD-UxvmvESl-35" value="" style="rounded=0;whiteSpace=wrap;html=1;fillColor=#f5f5f5;strokeColor=#666666;fontColor=#333333;" vertex="1" parent="1">
          <mxGeometry x="390" y="427" width="110" height="33" as="geometry" />
        </mxCell>
        <mxCell id="GxGi4b_EHKD-UxvmvESl-36" value="&lt;font style=&quot;font-size: 16px&quot;&gt;&lt;b&gt;Submit&lt;/b&gt;&lt;/font&gt;" style="text;html=1;strokeColor=none;fillColor=none;align=center;verticalAlign=middle;whiteSpace=wrap;rounded=0;" vertex="1" parent="1">
          <mxGeometry x="420" y="431" width="50" height="24.5" as="geometry" />
        </mxCell>
      </root>
    </mxGraphModel>
  </diagram>
</mxfile>
